<?xml version="1.0" encoding="iso-8859-1"?>
<!-- Uploaded to: SVG Repo, www.svgrepo.com, Generator: SVG Repo Mixer Tools -->
<svg height="800px" width="800px" version="1.1" id="Layer_1" xmlns="http://www.w3.org/2000/svg" xmlns:xlink="http://www.w3.org/1999/xlink" 
	 viewBox="0 0 512 512" xml:space="preserve">
<path style="fill:#74C194;" d="M440.519,8.828v391.293l-329.871,46.054l-39.168,5.465V60.359c0-24.195,16.679-44.496,39.168-50.035
	c3.957-0.977,8.098-1.496,12.363-1.496C123.01,8.828,440.519,8.828,440.519,8.828z"/>
<polyline style="fill:#EC589B;" points="236.743,121.114 236.743,8.828 307.635,8.828 307.635,121.126 307.635,225.35 
	307.635,400.121 236.743,400.121 236.743,225.35 "/>
<g>
	<path style="fill:#54AC7C;" d="M110.647,10.324v435.851l-39.168,5.465V60.359C71.479,36.164,88.158,15.863,110.647,10.324z"/>
	<path style="fill:#54AC7C;" d="M440.519,400.121v103.051H123.01c-28.46,0-51.531-23.071-51.531-51.531
		c0-6.986,1.397-13.65,3.919-19.732c2.609-6.293,6.429-11.956,11.176-16.691c9.322-9.322,22.205-15.095,36.436-15.095h317.508
		V400.121z"/>
</g>
<path style="fill:#E6E6E6;" d="M440.519,400.121v63.586H123.01c-21.463,0-39.872-13.131-47.612-31.799
	c2.609-6.293,6.429-11.956,11.176-16.691c9.322-9.322,22.205-15.095,36.436-15.095h317.508V400.121z"/>
<g>
	<path style="fill:#EC589B;" d="M365.027,225.354c28.478,0,45.706-32.17,29.251-55.411c-0.31-0.438-0.624-0.866-0.943-1.288
		c-9.013-11.906-13.032-26.705-11.832-41.591c1.645-20.35-10.349-42.654-37.61-42.654c-23.292,0-44.015,48.835-57.119,89.017
		h-29.178c-13.106-40.182-33.827-89.017-57.119-89.017c-27.262,0-39.254,22.303-37.61,42.654c1.2,14.886-2.819,29.685-11.832,41.591
		c-0.319,0.42-0.633,0.85-0.943,1.288c-16.455,23.243,0.773,55.411,29.251,55.411H365.027z"/>
	<path style="fill:#EC589B;" d="M294.027,173.427h-43.685c-12.518,0-22.666,10.148-22.666,22.666v29.261h89.017v-29.261
		C316.694,183.574,306.545,173.427,294.027,173.427z"/>
</g>
<g>
	<path style="fill:#D3468D;" d="M274.975,173.427h-23.495c-13.147,0-23.804,10.657-23.804,23.804v28.122h23.495v-28.122
		C251.17,184.084,261.828,173.427,274.975,173.427z"/>
	<polyline style="fill:#D3468D;" points="307.635,400.115 307.635,503.174 236.743,503.174 236.743,400.115 	"/>
</g>
<path d="M449.346,400.087V82.39c0-4.876-3.953-8.829-8.829-8.829s-8.829,3.953-8.829,8.829v308.903H316.465v-157.11h0.228h48.334
	c16.672,0,31.806-9.235,39.495-24.103c7.664-14.815,6.528-31.727-3.04-45.241c-0.364-0.514-0.733-1.018-1.108-1.514
	c-7.539-9.959-11.116-22.586-10.071-35.551c1.168-14.456-3.336-28.357-12.358-38.136c-8.484-9.198-20.259-14.058-34.052-14.058
	c-9.408,0-18.525,5.115-27.429,15.457V17.658h115.223v33.822c0,4.876,3.953,8.829,8.829,8.829s8.829-3.953,8.829-8.829V8.829
	c0-4.876-3.953-8.829-8.829-8.829H123.013C89.731,0,62.655,27.077,62.655,60.358v391.116c0,0.055-0.004,0.111-0.004,0.166
	c0,33.282,27.077,60.36,60.36,60.36H440.52c4.876,0,8.829-3.953,8.829-8.829v-103.05
	C449.348,400.11,449.346,400.099,449.346,400.087z M245.571,494.342v-21.806h53.235v21.806H245.571z M245.571,454.878V408.95h53.235
	v45.928H245.571z M316.464,408.95h115.225v45.928H316.464V408.95z M179.342,216.525c-10.195,0-19.097-5.442-23.811-14.557
	c-4.572-8.839-3.912-18.904,1.769-26.929c0.254-0.359,0.512-0.711,0.773-1.055c10.159-13.42,14.986-30.336,13.592-47.631
	c-0.76-9.417,2.132-18.665,7.737-24.741c5.126-5.556,12.216-8.374,21.073-8.374c9.814,0,26.49,19.107,44.946,71.746
	c-10.394,1.638-19.113,8.375-23.509,17.562l-29.637-15.97c-4.292-2.311-9.647-0.709-11.96,3.585
	c-2.313,4.292-0.709,9.647,3.585,11.96l34.948,18.831v15.572h-39.505V216.525z M236.504,216.525v-20.432
	c0-7.63,6.207-13.837,13.837-13.837h7.33c0.022,0,0.044,0,0.066,0h28.891c0.025,0,0.051,0,0.075,0h7.322
	c7.629,0,13.837,6.207,13.837,13.837v20.432H236.504z M343.893,93.238c8.857,0,15.948,2.817,21.073,8.374
	c5.605,6.076,8.497,15.325,7.737,24.743c-1.394,17.294,3.434,34.21,13.592,47.628c0.263,0.347,0.523,0.702,0.778,1.061
	c5.678,8.02,6.338,18.084,1.766,26.924c-4.715,9.115-13.617,14.557-23.813,14.557h-39.505v-14.022l34.948-18.832
	c4.292-2.313,5.898-7.668,3.585-11.96c-2.313-4.293-7.668-5.898-11.96-3.585l-29.075,15.666
	c-4.183-9.821-13.214-17.098-24.072-18.809C317.403,112.346,334.079,93.238,343.893,93.238z M298.806,118.961
	c-6.204,12.477-12.329,27.663-18.403,45.636h-16.436c-6.071-17.965-12.194-33.147-18.395-45.62V17.658h53.235L298.806,118.961
	L298.806,118.961z M123.013,17.658h104.9v73.387c-8.908-10.349-18.025-15.466-27.437-15.466c-13.793,0-25.569,4.861-34.053,14.058
	c-9.022,9.78-13.526,23.68-12.358,38.135c1.045,12.967-2.532,25.594-10.072,35.554c-0.376,0.496-0.748,1.003-1.108,1.514
	c-9.566,13.512-10.703,30.424-3.04,45.24c7.69,14.867,22.824,24.103,39.495,24.103h48.333h0.238v34.796
	c0,4.876,3.953,8.829,8.829,8.829c4.876,0,8.829-3.953,8.829-8.829v-34.797h53.235v157.109h-53.235v-92.883
	c0-4.876-3.953-8.829-8.829-8.829c-4.876,0-8.829,3.953-8.829,8.829v92.883h-42.248c-4.876,0-8.829,3.953-8.829,8.829
	s3.953,8.829,8.829,8.829h42.248v45.928H123.008c-16.077,0-30.555-8.91-37.866-22.976c2.002-3.842,4.568-7.345,7.673-10.442
	c8.067-8.067,18.789-12.509,30.192-12.509h33.224c4.876,0,8.829-3.953,8.829-8.829s-3.953-8.829-8.829-8.829h-33.224
	c-16.12,0-31.276,6.279-42.67,17.673c-0.009,0.009-0.018,0.02-0.027,0.028V60.358C80.313,36.814,99.469,17.658,123.013,17.658z
	 M80.454,455.017c11.078,11.022,26.235,17.518,42.556,17.518h104.903v21.806H123.01C100.602,494.342,82.184,476.99,80.454,455.017z
	 M316.464,494.342v-21.806h115.225v21.806H316.464z"/>
</svg>